<svg xmlns="http://www.w3.org/2000/svg" xmlns:xlink="http://www.w3.org/1999/xlink" width="1193.72" height="691"><g transform="translate(-9 -40.00000000000001)"><path d="M0 0h1360v1760H0z" fill="#fff"/><path d="M294.83 260.18h169.12v109.2H294.83z" stroke="#000" stroke-width="2" fill="#fff"/><use xlink:href="#a" transform="matrix(1,0,0,1,302.82518688703306,268.18382352941165) translate(51.55 50.6)"/><path d="M62.28 423.97H231.4v109.2H62.28z" stroke="#000" stroke-width="2" fill="#fff"/><use xlink:href="#b" transform="matrix(1,0,0,1,70.28079798262044,431.9705882352942) translate(47.074999999999996 50.6)"/><path d="M506.23 569.56h169.12v109.2H506.23z" stroke="#000" stroke-width="2" fill="#fff"/><use xlink:href="#c" transform="matrix(1,0,0,1,514.2291768001352,577.5588235294118) translate(49.05 50.6)"/><path d="M992.46 169.2h190.26v127.38H992.46z" stroke="#000" stroke-width="2" fill="#fff"/><use xlink:href="#d" transform="matrix(1,0,0,1,1000.4583536002706,177.1911764705882) translate(57.574999999999996 59.6)"/><path d="M506.23 60h169.12v109.2H506.23z" stroke="#000" stroke-width="2" fill="#fff"/><use xlink:href="#e" transform="matrix(1,0,0,1,514.2291768001352,68) translate(54 50.6)"/><path d="M738.77 387.57H907.9v109.2H738.77z" stroke="#000" stroke-width="2" fill="#fff"/><use xlink:href="#f" transform="matrix(1,0,0,1,746.7735657045477,395.5735294117647) translate(37.574999999999996 50.6)"/><path d="M379.4 260.18V138.86h125.77" fill="none"/><path d="M379.4 260.18v-10.3m0-10.3V219m0-10.3v-20.6m0-10.3v-20.58m0-10.3v-8.06h12.5m10.3 0h20.6m10.3 0h20.6m10.3 0h20.58m10.3 0h10.3" stroke="#000" stroke-width="2" fill="none"/><path d="M506.23 139.86h-1.06v-2h1.06z"/><use xlink:href="#g" transform="matrix(1,0,0,1,473.67215649823004,113.26029411764706) translate(0 14.4)"/><use xlink:href="#g" transform="matrix(1,0,0,1,344.386782852274,233.38382352941164) translate(0 14.4)"/><path d="M379.4 369.37v228.1h125.77" stroke="#000" stroke-width="2" fill="none"/><path d="M506.23 598.46h-1.06v-2h1.06z"/><use xlink:href="#h" transform="matrix(1,0,0,1,387.386782852274,407.97533916845583) translate(0 14.4)"/><use xlink:href="#h" transform="matrix(1,0,0,1,473.67215649822987,571.8632352941179) translate(0 14.4)"/><path d="M675.35 114.6H833.3v75.82h157.97" fill="none"/><path d="M675.35 114.6h10.05m10.04 0h20.1m10.04 0h20.1m10.03 0h20.1m10.04 0h20.1m10.04 0h17.33v2.75m0 10.05v20.1m0 10.03v20.1m0 10.04v2.75h17.34m10.05 0h20.08m10.04 0h20.1m10.04 0h20.1m10.03 0h20.08m10.04 0h10.05" stroke="#000" stroke-width="2" fill="none"/><path d="M992.46 191.42h-1.2v-2h1.2z"/><use xlink:href="#g" transform="matrix(1,0,0,1,680.852368730617,88.99558823529411) translate(0 14.4)"/><use xlink:href="#g" transform="matrix(1,0,0,1,959.7692057606271,164.82279411764702) translate(0 14.4)"/><path d="M537.24 170.1v199.73h53.55v199.73" stroke="#000" stroke-width="2" fill="none"/><path d="M538.24 170.1h-2v-.9h2z"/><use xlink:href="#h" transform="matrix(1,0,0,1,545.2350953207234,214.0378204478148) translate(0 14.4)"/><use xlink:href="#g" transform="matrix(1,0,0,1,598.7907727653761,542.7588235294115) translate(0 14.4)"/><path d="M647.17 170.1v244.16h90.55" stroke="#000" stroke-width="2" fill="none"/><path d="M648.17 170.1h-2v-.9h2zM738.77 415.26h-1.05v-2h1.05z"/><use xlink:href="#h" transform="matrix(1,0,0,1,655.1651700755366,174.30110263786761) translate(0 14.4)"/><use xlink:href="#g" transform="matrix(1,0,0,1,706.2165454026426,388.6647058823529) translate(0 14.4)"/><path d="M675.35 624.15h345.3V297.5" stroke="#000" stroke-width="2" fill="none"/><path d="M1021.65 297.5h-2v-.92h2z"/><use xlink:href="#h" transform="matrix(1,0,0,1,680.852368730617,598.5544117647061) translate(0 14.4)"/><use xlink:href="#h" transform="matrix(1,0,0,1,985.6455522553509,301.6908088235288) translate(0 14.4)"/><path d="M676.4 584.12h146.94v-87.36" stroke="#000" stroke-width="2" fill="none"/><path d="M676.4 585.12h-1.05v-2h1.06z"/><use xlink:href="#h" transform="matrix(1,0,0,1,680.9093883278426,558.5176470588236) translate(0 14.4)"/><use xlink:href="#h" transform="matrix(1,0,0,1,788.3351616697886,501.96470588235303) translate(0 14.4)"/><path d="M505.17 654.5H146.84V533.15" stroke="#000" stroke-width="2" fill="none"/><path d="M506.23 655.5h-1.06v-2h1.06z"/><use xlink:href="#h" transform="matrix(1,0,0,1,473.6721564982298,658.4852941176471) translate(0 14.4)"/><use xlink:href="#h" transform="matrix(1,0,0,1,111.84239394786135,538.3617647058825) translate(0 14.4)"/><path d="M463.95 314.78H727.6V271.1h263.67" stroke="#000" stroke-width="2" fill="none"/><path d="M992.46 272.1h-1.2v-2h1.2z"/><use xlink:href="#h" transform="matrix(1,0,0,1,469.4483788175149,289.1794117647057) translate(0 14.4)"/><use xlink:href="#i" transform="matrix(1,0,0,1,957.2692057606272,245.50294117647059) translate(0 14.4)"/><path d="M440 370.28v98.58H737.7" stroke="#000" stroke-width="2" fill="none"/><path d="M441 370.28h-2v-.9h2zM738.77 469.86h-1.05v-2h1.05z"/><use xlink:href="#h" transform="matrix(1,0,0,1,447.98925996069653,374.4849264705881) translate(0 14.4)"/><use xlink:href="#h" transform="matrix(1,0,0,1,706.2165454026426,443.260294117647) translate(0 14.4)"/><path d="M294.83 314.78H199v108.28" stroke="#000" stroke-width="2" fill="none"/><path d="M200 423.97h-2v-.9h2z"/><use xlink:href="#h" transform="matrix(1,0,0,1,262.32518688703306,318.77941176470574) translate(0 14.4)"/><use xlink:href="#h" transform="matrix(1,0,0,1,206.98871145975986,397.26066176470596) translate(0 14.4)"/><path d="M62.28 478.57H20V720h1137.35V297.5" stroke="#000" stroke-width="2" fill="none"/><path d="M1158.35 297.5h-2v-.92h2z"/><use xlink:href="#h" transform="matrix(1,0,0,1,29.78079798262044,482.56617647058835) translate(0 14.4)"/><use xlink:href="#h" transform="matrix(1,0,0,1,1122.3534657324903,301.69080882352984) translate(0 14.4)"/><path d="M146.84 423.97V86.7h358.33" stroke="#000" stroke-width="2" fill="none"/><path d="M506.23 87.7h-1.06v-2h1.06z"/><use xlink:href="#h" transform="matrix(1,0,0,1,111.84239394786135,397.1705882352942) translate(0 14.4)"/><use xlink:href="#h" transform="matrix(1,0,0,1,473.6721564982292,61.09117647058828) translate(0 14.4)"/><path d="M907.9 442.17h179.7v-145.6" stroke="#000" stroke-width="2" fill="none"/><use xlink:href="#h" transform="matrix(1,0,0,1,913.3967576350294,416.56911764705876) translate(0 14.4)"/><use xlink:href="#h" transform="matrix(1,0,0,1,1052.5901490611666,301.78088235294086) translate(0 14.4)"/><defs><path d="M185-189c-5-48-123-54-124 2 14 75 158 14 163 119 3 78-121 87-175 55-17-10-28-26-33-46l33-7c5 56 141 63 141-1 0-78-155-14-162-118-5-82 145-84 179-34 5 7 8 16 11 25" id="j"/><path d="M100-194c63 0 86 42 84 106H49c0 40 14 67 53 68 26 1 43-12 49-29l28 8c-11 28-37 45-77 45C44 4 14-33 15-96c1-61 26-98 85-98zm52 81c6-60-76-77-97-28-3 7-6 17-6 28h103" id="k"/><path d="M114-163C36-179 61-72 57 0H25l-1-190h30c1 12-1 29 2 39 6-27 23-49 58-41v29" id="l"/><path d="M24-231v-30h32v30H24zM24 0v-190h32V0H24" id="m"/><path d="M135-143c-3-34-86-38-87 0 15 53 115 12 119 90S17 21 10-45l28-5c4 36 97 45 98 0-10-56-113-15-118-90-4-57 82-63 122-42 12 7 21 19 24 35" id="n"/><g id="a"><use transform="matrix(0.05,0,0,0.05,0,0)" xlink:href="#j"/><use transform="matrix(0.05,0,0,0.05,12,0)" xlink:href="#k"/><use transform="matrix(0.05,0,0,0.05,22,0)" xlink:href="#l"/><use transform="matrix(0.05,0,0,0.05,27.950000000000003,0)" xlink:href="#m"/><use transform="matrix(0.05,0,0,0.05,31.899999999999995,0)" xlink:href="#k"/><use transform="matrix(0.05,0,0,0.05,41.9,0)" xlink:href="#n"/></g><path d="M212-179c-10-28-35-45-73-45-59 0-87 40-87 99 0 60 29 101 89 101 43 0 62-24 78-52l27 14C228-24 195 4 139 4 59 4 22-46 18-125c-6-104 99-153 187-111 19 9 31 26 39 46" id="o"/><path d="M141-36C126-15 110 5 73 4 37 3 15-17 15-53c-1-64 63-63 125-63 3-35-9-54-41-54-24 1-41 7-42 31l-33-3c5-37 33-52 76-52 45 0 72 20 72 64v82c-1 20 7 32 28 27v20c-31 9-61-2-59-35zM48-53c0 20 12 33 32 33 41-3 63-29 60-74-43 2-92-5-92 41" id="p"/><path d="M59-47c-2 24 18 29 38 22v24C64 9 27 4 27-40v-127H5v-23h24l9-43h21v43h35v23H59v120" id="q"/><path d="M100-194c62-1 85 37 85 99 1 63-27 99-86 99S16-35 15-95c0-66 28-99 85-99zM99-20c44 1 53-31 53-75 0-43-8-75-51-75s-53 32-53 75 10 74 51 75" id="r"/><g id="b"><use transform="matrix(0.05,0,0,0.05,0,0)" xlink:href="#o"/><use transform="matrix(0.05,0,0,0.05,12.950000000000001,0)" xlink:href="#l"/><use transform="matrix(0.05,0,0,0.05,18.900000000000002,0)" xlink:href="#k"/><use transform="matrix(0.05,0,0,0.05,28.900000000000002,0)" xlink:href="#p"/><use transform="matrix(0.05,0,0,0.05,38.900000000000006,0)" xlink:href="#q"/><use transform="matrix(0.05,0,0,0.05,43.900000000000006,0)" xlink:href="#r"/><use transform="matrix(0.05,0,0,0.05,53.900000000000006,0)" xlink:href="#l"/></g><g id="c"><use transform="matrix(0.05,0,0,0.05,0,0)" xlink:href="#j"/><use transform="matrix(0.05,0,0,0.05,12,0)" xlink:href="#q"/><use transform="matrix(0.05,0,0,0.05,17,0)" xlink:href="#r"/><use transform="matrix(0.05,0,0,0.05,27,0)" xlink:href="#l"/><use transform="matrix(0.05,0,0,0.05,32.95,0)" xlink:href="#m"/><use transform="matrix(0.05,0,0,0.05,36.900000000000006,0)" xlink:href="#k"/><use transform="matrix(0.05,0,0,0.05,46.900000000000006,0)" xlink:href="#n"/></g><path d="M210-169c-67 3-38 105-44 169h-31v-121c0-29-5-50-35-48C34-165 62-65 56 0H25l-1-190h30c1 10-1 24 2 32 10-44 99-50 107 0 11-21 27-35 58-36 85-2 47 119 55 194h-31v-121c0-29-5-49-35-48" id="s"/><path d="M96-169c-40 0-48 33-48 73s9 75 48 75c24 0 41-14 43-38l32 2c-6 37-31 61-74 61-59 0-76-41-82-99-10-93 101-131 147-64 4 7 5 14 7 22l-32 3c-4-21-16-35-41-35" id="t"/><g id="d"><use transform="matrix(0.05,0,0,0.05,0,0)" xlink:href="#o"/><use transform="matrix(0.05,0,0,0.05,12.950000000000001,0)" xlink:href="#r"/><use transform="matrix(0.05,0,0,0.05,22.950000000000003,0)" xlink:href="#s"/><use transform="matrix(0.05,0,0,0.05,37.900000000000006,0)" xlink:href="#m"/><use transform="matrix(0.05,0,0,0.05,41.85000000000001,0)" xlink:href="#t"/><use transform="matrix(0.05,0,0,0.05,50.85000000000001,0)" xlink:href="#n"/></g><path d="M30 0v-248h187v28H63v79h144v27H63v87h162V0H30" id="u"/><path d="M108 0H70L1-190h34L89-25l56-165h34" id="v"/><path d="M117-194c89-4 53 116 60 194h-32v-121c0-31-8-49-39-48C34-167 62-67 57 0H25l-1-190h30c1 10-1 24 2 32 11-22 29-35 61-36" id="w"/><g id="e"><use transform="matrix(0.05,0,0,0.05,0,0)" xlink:href="#u"/><use transform="matrix(0.05,0,0,0.05,12,0)" xlink:href="#v"/><use transform="matrix(0.05,0,0,0.05,21,0)" xlink:href="#k"/><use transform="matrix(0.05,0,0,0.05,31,0)" xlink:href="#w"/><use transform="matrix(0.05,0,0,0.05,41,0)" xlink:href="#q"/></g><path d="M106-169C34-169 62-67 57 0H25v-261h32l-1 103c12-21 28-36 61-36 89 0 53 116 60 194h-32v-121c2-32-8-49-39-48" id="x"/><g id="f"><use transform="matrix(0.05,0,0,0.05,0,0)" xlink:href="#o"/><use transform="matrix(0.05,0,0,0.05,12.950000000000001,0)" xlink:href="#x"/><use transform="matrix(0.05,0,0,0.05,22.950000000000003,0)" xlink:href="#p"/><use transform="matrix(0.05,0,0,0.05,32.95,0)" xlink:href="#l"/><use transform="matrix(0.05,0,0,0.05,38.900000000000006,0)" xlink:href="#p"/><use transform="matrix(0.05,0,0,0.05,48.900000000000006,0)" xlink:href="#t"/><use transform="matrix(0.05,0,0,0.05,57.900000000000006,0)" xlink:href="#q"/><use transform="matrix(0.05,0,0,0.05,62.900000000000006,0)" xlink:href="#k"/><use transform="matrix(0.05,0,0,0.05,72.9,0)" xlink:href="#l"/></g><path d="M101-251c68 0 85 55 85 127S166 4 100 4C33 4 14-52 14-124c0-73 17-127 87-127zm-1 229c47 0 54-49 54-102s-4-102-53-102c-51 0-55 48-55 102 0 53 5 102 54 102" id="y"/><path d="M33 0v-38h34V0H33" id="z"/><path d="M80-196l47-18 7 23-49 13 32 44-20 13-27-46-27 45-21-12 33-44-49-13 8-23 47 19-2-53h23" id="A"/><g id="g"><use transform="matrix(0.05,0,0,0.05,0,0)" xlink:href="#y"/><use transform="matrix(0.05,0,0,0.05,10,0)" xlink:href="#z"/><use transform="matrix(0.05,0,0,0.05,15,0)" xlink:href="#z"/><use transform="matrix(0.05,0,0,0.05,20,0)" xlink:href="#A"/></g><path d="M27 0v-27h64v-190l-56 39v-29l58-41h29v221h61V0H27" id="B"/><g id="h"><use transform="matrix(0.05,0,0,0.05,0,0)" xlink:href="#B"/><use transform="matrix(0.05,0,0,0.05,10,0)" xlink:href="#z"/><use transform="matrix(0.05,0,0,0.05,15,0)" xlink:href="#z"/><use transform="matrix(0.05,0,0,0.05,20,0)" xlink:href="#A"/></g><g id="i"><use transform="matrix(0.05,0,0,0.05,0,0)" xlink:href="#B"/><use transform="matrix(0.05,0,0,0.05,10,0)" xlink:href="#z"/><use transform="matrix(0.05,0,0,0.05,15,0)" xlink:href="#z"/><use transform="matrix(0.05,0,0,0.05,20,0)" xlink:href="#B"/></g></defs></g></svg>